<?xml version="1.0" ?><!DOCTYPE svg  PUBLIC '-//W3C//DTD SVG 1.1//EN'  'http://www.w3.org/Graphics/SVG/1.1/DTD/svg11.dtd'><svg height="28px" fill="white" style="enable-background:new 0 0 512 512;" version="1.1" viewBox="0 0 512 512" width="28px" xml:space="preserve" xmlns="http://www.w3.org/2000/svg" xmlns:xlink="http://www.w3.org/1999/xlink"><g id="C_-_194_x2C__auction__x2C__vintage_x2C__expensive_x2C__gravel_x2C__judge"><g><path d="M150.686,193.345c-0.577,0.235-1.153,0.469-1.737,0.684c-0.337,0.124-0.679,0.234-1.019,0.351    c-0.493,0.17-0.985,0.345-1.482,0.5c-0.465,0.146-0.938,0.274-1.41,0.407c-0.386,0.11-0.769,0.228-1.157,0.329    c-0.609,0.159-1.227,0.295-1.843,0.432c-0.263,0.058-0.521,0.126-0.785,0.18c-0.748,0.155-1.504,0.287-2.263,0.41    c-0.141,0.023-0.281,0.054-0.423,0.075c-0.857,0.133-1.721,0.243-2.592,0.334c-0.047,0.004-0.094,0.013-0.141,0.017    c-0.899,0.092-1.806,0.162-2.718,0.209c-0.018,0.001-0.034,0.003-0.052,0.004c-0.924,0.046-1.854,0.071-2.79,0.071    c-0.935,0-1.865-0.025-2.789-0.071c-0.052-0.003-0.105-0.009-0.158-0.012c-0.875-0.047-1.745-0.112-2.609-0.2    c-0.107-0.011-0.212-0.029-0.319-0.041c-0.807-0.087-1.611-0.187-2.408-0.31c-0.224-0.035-0.447-0.082-0.671-0.119    c-0.672-0.113-1.345-0.227-2.009-0.364c-0.35-0.072-0.695-0.161-1.043-0.24c-0.528-0.12-1.057-0.235-1.579-0.371    c-0.472-0.122-0.939-0.264-1.409-0.399c-0.384-0.11-0.771-0.213-1.152-0.332c-0.571-0.178-1.136-0.378-1.701-0.575    c-0.265-0.093-0.534-0.178-0.796-0.275c-0.644-0.236-1.28-0.492-1.916-0.753c-0.172-0.071-0.346-0.137-0.517-0.209    c-0.158-0.067-0.319-0.125-0.476-0.192v51.159l18.667-25.415c0.898-1.223,2.336-1.975,3.851-1.911    c1.518,0.024,2.929,0.782,3.789,2.033l16.796,24.478v-50.347c-0.146,0.063-0.295,0.117-0.443,0.179    C151.152,193.162,150.917,193.25,150.686,193.345z"/><polygon points="281.252,69.2 281.252,111.98 324.207,111.98   "/><path d="M116.915,185.941c0.093,0.029,0.187,0.058,0.28,0.086c0.587,0.179,1.178,0.347,1.774,0.502    c0.083,0.021,0.165,0.046,0.248,0.066c0.643,0.164,1.291,0.312,1.944,0.448c0.149,0.031,0.3,0.059,0.45,0.088    c0.513,0.101,1.029,0.192,1.548,0.275c0.181,0.029,0.362,0.06,0.545,0.087c0.643,0.094,1.289,0.178,1.94,0.245    c0.115,0.012,0.23,0.02,0.345,0.03c0.561,0.054,1.126,0.096,1.694,0.129c0.187,0.011,0.374,0.021,0.56,0.029    c0.674,0.03,1.35,0.051,2.031,0.051c0.68,0,1.355-0.021,2.028-0.051c0.189-0.008,0.379-0.019,0.568-0.03    c0.558-0.031,1.113-0.073,1.666-0.126c0.125-0.012,0.251-0.02,0.376-0.033c0.641-0.066,1.278-0.148,1.91-0.241    c0.202-0.03,0.403-0.064,0.605-0.096c0.487-0.079,0.971-0.165,1.452-0.259c0.178-0.035,0.358-0.066,0.537-0.104    c0.631-0.131,1.258-0.275,1.879-0.432c0.126-0.032,0.25-0.068,0.376-0.102c0.543-0.142,1.081-0.294,1.615-0.457    c0.132-0.041,0.265-0.081,0.398-0.122c1.334-0.419,2.643-0.897,3.92-1.434c0.004-0.003,0.009-0.005,0.015-0.006    c15.99-6.744,27.235-22.517,27.235-40.854c0-24.454-19.999-44.349-44.58-44.349c-24.582,0-44.582,19.895-44.582,44.349    C85.693,163.456,98.84,180.281,116.915,185.941z M130.274,121.444c12.279,0,22.269,9.953,22.269,22.187    s-9.99,22.187-22.269,22.187s-22.27-9.953-22.27-22.187S117.995,121.444,130.274,121.444z"/><path d="M276.566,251.926c-2.588,0-4.686-2.098-4.686-4.686v-98.067c0-2.588,2.098-4.686,4.686-4.686h33.229h21.07v-23.136h-54.3    c-2.588,0-4.686-2.098-4.686-4.686V62.607H45.154v377.416h285.712V251.926h-21.07H276.566z M130.274,89.911    c29.749,0,53.951,24.099,53.951,53.72c0,18.172-9.117,34.253-23.028,43.979v70.73c0,2.054-1.336,3.867-3.297,4.476    c-0.458,0.142-0.926,0.21-1.387,0.21c-1.515,0-2.974-0.736-3.864-2.034l-21.612-31.496l-23.222,31.618    c-1.199,1.632-3.314,2.309-5.235,1.679c-1.926-0.631-3.227-2.427-3.227-4.452v-70.729c-13.912-9.726-23.03-25.809-23.03-43.98    C76.322,114.01,100.525,89.911,130.274,89.911z M309.205,412.026H66.815c-2.587,0-4.686-2.098-4.686-4.686    s2.099-4.686,4.686-4.686h242.39c2.588,0,4.686,2.098,4.686,4.686S311.793,412.026,309.205,412.026z M309.205,373.562H66.815    c-2.587,0-4.686-2.098-4.686-4.686s2.099-4.686,4.686-4.686h242.39c2.588,0,4.686,2.098,4.686,4.686    S311.793,373.562,309.205,373.562z M313.891,330.404c0,2.588-2.098,4.686-4.686,4.686H66.815c-2.587,0-4.686-2.098-4.686-4.686    s2.099-4.686,4.686-4.686h242.39C311.793,325.719,313.891,327.816,313.891,330.404z"/><path d="M130.274,156.446c7.112,0,12.898-5.749,12.898-12.815c0-7.067-5.786-12.815-12.898-12.815s-12.898,5.749-12.898,12.815    C117.376,150.697,123.162,156.446,130.274,156.446z"/><rect height="88.696" width="23.858" x="281.252" y="153.858"/><rect height="88.696" width="23.859" x="442.986" y="153.858"/><path d="M314.481,153.858v88.696h21.07h33.813v202.153c0,2.588,2.098,4.686,4.686,4.686s4.686-2.098,4.686-4.686V242.555h54.879    v-88.696h-98.063H314.481z"/></g></g><g id="Layer_1"/></svg>